<svg width="22" height="22" viewBox="0 0 22 22" fill="none" xmlns="http://www.w3.org/2000/svg">
<path d="M16.9694 6.90373L16.8395 6.90821C14.9485 6.91346 13.489 5.50298 13.4269 3.70405C13.3634 1.86514 14.8111 0.324276 16.64 0.261137C18.4689 0.197997 20.0198 1.64535 20.0829 3.47426C20.114 4.33837 19.8074 5.18062 19.2282 5.82258C18.6489 6.46454 17.8425 6.85577 16.9797 6.91338C16.9794 6.90338 16.9794 6.90338 16.9694 6.90373V6.90373ZM16.6914 1.75025C15.682 1.7851 14.8908 2.6329 14.9256 3.6423C14.9598 4.63171 15.757 5.40467 16.7477 5.41049C16.7574 5.40015 16.8373 5.39739 16.9276 5.40428C17.3998 5.35674 17.835 5.12785 18.1418 4.76582C18.4486 4.40379 18.6029 3.93685 18.5723 3.46331C18.5417 2.98977 18.3285 2.54659 17.9777 2.22706C17.6269 1.90754 17.1657 1.73661 16.6914 1.75025V1.75025ZM17.2326 14.267C16.8428 14.2805 16.452 14.264 16.0598 14.2075C15.9621 14.1939 15.8679 14.1612 15.7828 14.1112C15.6977 14.0612 15.6233 13.9949 15.5639 13.916C15.5044 13.8372 15.4612 13.7474 15.4365 13.6519C15.4118 13.5563 15.4063 13.4568 15.4202 13.359C15.4337 13.2612 15.4664 13.1671 15.5165 13.082C15.5665 12.9969 15.6328 12.9225 15.7116 12.863C15.7904 12.8036 15.8802 12.7603 15.9758 12.7357C16.0714 12.711 16.1709 12.7055 16.2686 12.7194C17.5051 12.8868 18.7964 12.6121 19.6459 12.0024C20.1049 11.6764 20.3413 11.278 20.3279 10.8882C20.3144 10.4985 20.0415 10.1277 19.571 9.83371C18.6815 9.28407 17.3544 9.09975 16.1227 9.3624C15.7157 9.4565 15.3163 9.19012 15.2322 8.78278C15.1481 8.37544 15.4045 7.97636 15.8118 7.89225C17.4308 7.54619 19.1305 7.7977 20.3574 8.55582C21.2572 9.1151 21.7959 9.93701 21.827 10.8365C21.8577 11.7259 21.3873 12.5927 20.5185 13.223C19.6298 13.8541 18.4619 14.2246 17.2326 14.267V14.267ZM4.94649 7.31679L4.9265 7.31748C4.06334 7.32026 3.23295 6.98716 2.61099 6.38866C1.98903 5.79016 1.62427 4.97318 1.59387 4.11056C1.53038 2.27165 2.97774 0.720791 4.80665 0.657652C6.63556 0.594513 8.18642 2.04187 8.24956 3.87078C8.31201 5.6797 6.95322 7.18748 5.15636 7.30955L4.92061 6.56724L5.01645 7.31438L4.94649 7.31679V7.31679ZM4.99467 5.81423C5.05464 5.81216 5.10461 5.81044 5.16492 5.81836C6.05301 5.74768 6.80494 4.92124 6.77078 3.93183C6.75791 3.5745 6.64064 3.22877 6.43346 2.93735C6.22627 2.64592 5.93826 2.42158 5.60498 2.29204C5.27171 2.16249 4.90779 2.13341 4.55818 2.2084C4.20857 2.28339 3.88858 2.45916 3.63776 2.71399C3.38693 2.96882 3.21626 3.29155 3.14681 3.6423C3.07737 3.99306 3.11221 4.35648 3.24702 4.68765C3.38182 5.01883 3.6107 5.30326 3.90537 5.5058C4.20003 5.70834 4.54758 5.82012 4.90507 5.82733C4.91472 5.81699 4.9547 5.81561 4.99467 5.81423ZM5.19078 14.6827C3.96151 14.7252 2.77083 14.4361 1.84067 13.8679C0.940833 13.3086 0.401809 12.4767 0.370757 11.5772C0.34005 10.6877 0.82042 9.82064 1.67954 9.20063C2.85122 8.3597 4.52952 7.99158 6.16856 8.22517C6.58073 8.28098 6.86402 8.66143 6.80821 9.0736C6.7524 9.48577 6.37229 9.77906 5.95977 9.71326C4.71292 9.53617 3.41164 9.81123 2.55217 10.4213C2.09315 10.7473 1.85641 11.1357 1.86986 11.5254C1.88332 11.9152 2.15662 12.296 2.62704 12.59C3.51654 13.1396 4.8237 13.3246 6.04572 13.0723C6.45306 12.9882 6.85249 13.2546 6.93625 13.6519C7.02035 14.0593 6.76397 14.4583 6.35663 14.5424C5.96928 14.6259 5.58054 14.6693 5.19078 14.6827V14.6827ZM11.2306 14.5743L11.1007 14.5788C9.20976 14.584 7.75023 13.1735 7.68812 11.3746C7.62464 9.53571 9.07234 7.99484 10.9012 7.9317C12.7302 7.86856 14.281 9.31592 14.3442 11.1448C14.3752 12.0089 14.0686 12.8512 13.4894 13.4931C12.9101 14.1351 12.1037 14.5263 11.241 14.5839C11.2406 14.574 11.2406 14.574 11.2306 14.5743ZM10.9527 9.42082C9.94326 9.45567 9.15204 10.3035 9.18689 11.3129C9.22104 12.3023 10.0182 13.0752 11.009 13.0811C11.0186 13.0707 11.0986 13.068 11.1889 13.0748C12.1566 12.9914 12.8785 12.166 12.8547 11.1862C12.8202 10.1868 11.972 9.38563 10.9527 9.42082ZM11.4862 21.9489C10.2869 21.9903 9.07696 21.7219 8.12577 21.1243C7.22594 20.565 6.68726 19.7431 6.65621 18.8437C6.6255 17.9542 7.09553 17.0775 7.96465 16.4571C9.79075 15.1533 12.719 15.0522 14.6207 16.2273C15.5205 16.7866 16.0592 17.6085 16.0902 18.508C16.121 19.3974 15.6509 20.2742 14.7818 20.8945C13.8738 21.5463 12.6855 21.9075 11.4862 21.9489ZM8.83763 17.6877C8.3786 18.0137 8.14221 18.4121 8.15566 18.8019C8.16912 19.1917 8.44207 19.5625 8.9125 19.8564C10.2931 20.7193 12.5817 20.6403 13.8995 19.6843C14.3585 19.3582 14.5949 18.9598 14.5815 18.5701C14.568 18.1803 14.2951 17.8095 13.8247 17.5155C12.4541 16.6523 10.1658 16.7413 8.83763 17.6877Z" fill="#020B19"/>
</svg>
