<svg width="22" height="22" viewBox="0 0 22 22" fill="none" xmlns="http://www.w3.org/2000/svg">
<path d="M16.9694 6.93912L16.8395 6.94361C14.9486 6.94897 13.4891 5.53857 13.4271 3.73963C13.3638 1.90073 14.8116 0.359766 16.6405 0.296517C18.4694 0.233269 20.0201 1.68054 20.0832 3.50945C20.1142 4.37356 19.8076 5.21583 19.2283 5.85783C18.649 6.49983 17.8425 6.8911 16.9798 6.94876C16.9794 6.93877 16.9794 6.93877 16.9694 6.93912V6.93912ZM16.6918 1.78563C15.6824 1.82054 14.8911 2.6684 14.9259 3.6778C14.96 4.66721 15.7571 5.44012 16.7479 5.44588C16.7575 5.43554 16.8375 5.43278 16.9278 5.43966C17.3999 5.39209 17.8352 5.16318 18.142 4.80113C18.4488 4.43908 18.6031 3.97212 18.5725 3.49859C18.542 3.02505 18.3288 2.58188 17.978 2.26237C17.6272 1.94287 17.1661 1.77196 16.6918 1.78563V1.78563ZM17.2322 14.3024C16.8425 14.3159 16.4517 14.2994 16.0595 14.2429C15.9617 14.2294 15.8675 14.1967 15.7824 14.1467C15.6973 14.0967 15.6229 14.0304 15.5635 13.9516C15.5041 13.8727 15.4608 13.783 15.4362 13.6874C15.4115 13.5918 15.406 13.4923 15.4199 13.3945C15.4334 13.2967 15.4661 13.2026 15.5161 13.1175C15.5662 13.0324 15.6325 12.958 15.7113 12.8985C15.7901 12.8391 15.8799 12.7958 15.9755 12.7711C16.0711 12.7465 16.1706 12.7409 16.2683 12.7548C17.5048 12.9222 18.7961 12.6474 19.6456 12.0377C20.1047 11.7116 20.3411 11.3132 20.3277 10.9234C20.3142 10.5337 20.0413 10.1629 19.5709 9.86895C18.6814 9.31937 17.3543 9.13513 16.1226 9.39785C15.7156 9.49198 15.3162 9.22562 15.2321 8.81828C15.1481 8.41095 15.4045 8.01185 15.8118 7.92772C17.4309 7.58155 19.1305 7.83296 20.3574 8.59101C21.2572 9.15024 21.7958 9.97212 21.8268 10.8716C21.8574 11.7611 21.387 12.6278 20.5182 13.2582C19.6294 13.8893 18.4615 14.2599 17.2322 14.3024V14.3024ZM4.94657 7.3529L4.92658 7.35359C4.06343 7.35642 3.23306 7.02337 2.61114 6.4249C1.98921 5.82643 1.6245 5.00948 1.59415 4.14685C1.53078 2.30794 2.97822 0.75699 4.80713 0.693741C6.63603 0.630492 8.1868 2.07776 8.24983 3.90667C8.31217 5.7156 6.9533 7.22347 5.15644 7.34564L4.92074 6.60335L5.01653 7.35048L4.94657 7.3529V7.3529ZM4.99484 5.85033C5.05481 5.84826 5.10478 5.84653 5.16509 5.85445C6.05318 5.78372 6.80516 4.95723 6.77106 3.96782C6.75821 3.61049 6.64096 3.26476 6.43379 2.97335C6.22663 2.68194 5.93862 2.45761 5.60536 2.32808C5.2721 2.19856 4.90818 2.1695 4.55857 2.24451C4.20895 2.31952 3.88896 2.49531 3.63812 2.75016C3.38728 3.005 3.21658 3.32774 3.14712 3.6785C3.07766 4.02927 3.11247 4.39268 3.24726 4.72385C3.38205 5.05502 3.61091 5.33944 3.90556 5.54196C4.20021 5.74449 4.54775 5.85625 4.90524 5.86344C4.91489 5.8531 4.95487 5.85172 4.99484 5.85033ZM5.19042 14.7189C3.96115 14.7614 2.77049 14.4724 1.84037 13.9042C0.940573 13.3449 0.401601 12.5131 0.370603 11.6136C0.339949 10.7241 0.820368 9.85701 1.67952 9.23694C2.85125 8.39594 4.52956 8.02772 6.16858 8.26121C6.58074 8.317 6.86401 8.69743 6.80818 9.10961C6.75234 9.52178 6.37222 9.8151 5.95971 9.74932C4.71287 9.5723 3.41158 9.84744 2.55208 10.4575C2.09304 10.7836 1.85627 11.172 1.86971 11.5618C1.88314 11.9515 2.15642 12.3323 2.62682 12.6262C3.51628 13.1758 4.82342 13.3607 6.04545 13.1084C6.4528 13.0242 6.85221 13.2906 6.93594 13.6879C7.02002 14.0953 6.76362 14.4944 6.35627 14.5785C5.96892 14.6619 5.58018 14.7054 5.19042 14.7189V14.7189ZM11.2303 14.6101L11.1003 14.6146C9.20939 14.6199 7.74995 13.2095 7.68795 11.4106C7.62458 9.57167 9.07236 8.03071 10.9013 7.96746C12.7302 7.90421 14.2809 9.35148 14.344 11.1804C14.375 12.0445 14.0684 12.8868 13.4891 13.5288C12.9098 14.1708 12.1033 14.562 11.2406 14.6197C11.2402 14.6097 11.2402 14.6097 11.2303 14.6101ZM10.9526 9.45658C9.94319 9.49148 9.15192 10.3393 9.18671 11.3487C9.22081 12.3382 10.0179 13.1111 11.0087 13.1168C11.0183 13.1065 11.0983 13.1037 11.1886 13.1106C12.1563 13.0271 12.8783 12.2017 12.8545 11.2219C12.8201 10.2225 11.972 9.42132 10.9526 9.45658ZM11.4854 21.9846C10.2861 22.0261 9.07616 21.7578 8.12502 21.1603C7.22522 20.6011 6.68659 19.7792 6.6556 18.8797C6.62494 17.9902 7.09502 17.1135 7.96417 16.4931C9.79034 15.1892 12.7186 15.0879 14.6202 16.2629C15.52 16.8221 16.0586 17.644 16.0896 18.5435C16.1203 19.4329 15.6502 20.3097 14.781 20.9301C13.8729 21.5819 12.6847 21.9432 11.4854 21.9846ZM8.83707 17.7236C8.37803 18.0497 8.14161 18.4481 8.15504 18.8379C8.16848 19.2276 8.44141 19.5984 8.91181 19.8923C10.2923 20.7551 12.581 20.676 13.8988 19.7199C14.3579 19.3938 14.5943 18.9954 14.5809 18.6056C14.5674 18.2159 14.2945 17.8451 13.8241 17.5512C12.4535 16.688 10.1653 16.7772 8.83707 17.7236Z" fill="white"/>
</svg>
