<svg width="25" height="25" viewBox="0 0 25 25" fill="none" xmlns="http://www.w3.org/2000/svg">
<path d="M15.1152 23.3269H9.11523C3.68523 23.3269 1.36523 21.0069 1.36523 15.5769V9.5769C1.36523 4.1469 3.68523 1.8269 9.11523 1.8269H15.1152C20.5452 1.8269 22.8652 4.1469 22.8652 9.5769V15.5769C22.8652 21.0069 20.5452 23.3269 15.1152 23.3269ZM9.11523 3.3269C4.50523 3.3269 2.86523 4.9669 2.86523 9.5769V15.5769C2.86523 20.1869 4.50523 21.8269 9.11523 21.8269H15.1152C19.7252 21.8269 21.3652 20.1869 21.3652 15.5769V9.5769C21.3652 4.9669 19.7252 3.3269 15.1152 3.3269H9.11523Z" fill="white"/>
<path d="M15.6953 19.8289C15.2853 19.8289 14.9453 19.4889 14.9453 19.0789V15.1789C14.9453 14.7689 15.2853 14.4289 15.6953 14.4289C16.1053 14.4289 16.4453 14.7689 16.4453 15.1789V19.0789C16.4453 19.4889 16.1053 19.8289 15.6953 19.8289ZM15.6953 8.7769C15.2853 8.7769 14.9453 8.4369 14.9453 8.0269V6.0769C14.9453 5.6669 15.2853 5.3269 15.6953 5.3269C16.1053 5.3269 16.4453 5.6669 16.4453 6.0769V8.0269C16.4453 8.4369 16.1053 8.7769 15.6953 8.7769Z" fill="white"/>
<path d="M15.6952 13.9769C15.0326 13.9769 14.3849 13.7804 13.834 13.4123C13.2831 13.0442 12.8537 12.521 12.6002 11.9089C12.3466 11.2968 12.2803 10.6232 12.4095 9.97335C12.5388 9.32352 12.8578 8.7266 13.3263 8.2581C13.7949 7.78959 14.3918 7.47053 15.0416 7.34127C15.6914 7.21201 16.365 7.27835 16.9771 7.53191C17.5893 7.78546 18.1125 8.21484 18.4806 8.76574C18.8487 9.31665 19.0452 9.96434 19.0452 10.6269C19.0452 12.4769 17.5352 13.9769 15.6952 13.9769ZM15.6952 8.7769C14.6752 8.7769 13.8452 9.6069 13.8452 10.6269C13.8452 11.6469 14.6752 12.4769 15.6952 12.4769C16.7152 12.4769 17.5452 11.6469 17.5452 10.6269C17.5452 9.6069 16.7052 8.7769 15.6952 8.7769ZM8.53516 19.8269C8.12516 19.8269 7.78516 19.4869 7.78516 19.0769V17.1269C7.78516 16.7169 8.12516 16.3769 8.53516 16.3769C8.94516 16.3769 9.28516 16.7169 9.28516 17.1269V19.0769C9.28516 19.4869 8.95516 19.8269 8.53516 19.8269ZM8.53516 10.7269C8.12516 10.7269 7.78516 10.3869 7.78516 9.9769V6.0769C7.78516 5.6669 8.12516 5.3269 8.53516 5.3269C8.94516 5.3269 9.28516 5.6669 9.28516 6.0769V9.9769C9.28516 10.3869 8.95516 10.7269 8.53516 10.7269Z" fill="white"/>
<path d="M8.53506 17.879C8.09513 17.879 7.65951 17.7923 7.25307 17.624C6.84663 17.4556 6.47733 17.2088 6.16625 16.8978C5.85517 16.5867 5.60842 16.2174 5.44006 15.8109C5.27171 15.4045 5.18506 14.9689 5.18506 14.529C5.18506 14.089 5.27171 13.6534 5.44006 13.247C5.60842 12.8405 5.85517 12.4712 6.16625 12.1601C6.47733 11.8491 6.84663 11.6023 7.25307 11.434C7.65951 11.2656 8.09513 11.179 8.53506 11.179C9.42353 11.179 10.2756 11.5319 10.9039 12.1601C11.5321 12.7884 11.8851 13.6405 11.8851 14.529C11.8851 15.4174 11.5321 16.2695 10.9039 16.8978C10.2756 17.526 9.42353 17.879 8.53506 17.879ZM8.53506 12.679C7.51506 12.679 6.68506 13.509 6.68506 14.529C6.68506 15.549 7.51506 16.379 8.53506 16.379C9.55506 16.379 10.3851 15.549 10.3851 14.529C10.3851 13.509 9.56506 12.679 8.53506 12.679Z" fill="white"/>
</svg>
