<svg width="25" height="25" viewBox="0 0 25 25" fill="none" xmlns="http://www.w3.org/2000/svg">
<path d="M15.8223 23.25H9.82227C4.39227 23.25 2.07227 20.93 2.07227 15.5V9.5C2.07227 4.07 4.39227 1.75 9.82227 1.75H15.8223C21.2523 1.75 23.5723 4.07 23.5723 9.5V15.5C23.5723 20.93 21.2523 23.25 15.8223 23.25ZM9.82227 3.25C5.21227 3.25 3.57227 4.89 3.57227 9.5V15.5C3.57227 20.11 5.21227 21.75 9.82227 21.75H15.8223C20.4323 21.75 22.0723 20.11 22.0723 15.5V9.5C22.0723 4.89 20.4323 3.25 15.8223 3.25H9.82227Z" fill="#020B19"/>
<path d="M16.4023 19.752C15.9923 19.752 15.6523 19.412 15.6523 19.002V15.102C15.6523 14.692 15.9923 14.352 16.4023 14.352C16.8123 14.352 17.1523 14.692 17.1523 15.102V19.002C17.1523 19.412 16.8123 19.752 16.4023 19.752ZM16.4023 8.7C15.9923 8.7 15.6523 8.36 15.6523 7.95V6C15.6523 5.59 15.9923 5.25 16.4023 5.25C16.8123 5.25 17.1523 5.59 17.1523 6V7.95C17.1523 8.36 16.8123 8.7 16.4023 8.7Z" fill="#020B19"/>
<path d="M16.4022 13.9C15.7396 13.9 15.0919 13.7035 14.541 13.3354C13.9901 12.9673 13.5607 12.4441 13.3072 11.832C13.0536 11.2199 12.9873 10.5463 13.1166 9.89645C13.2458 9.24661 13.5649 8.6497 14.0334 8.18119C14.5019 7.71269 15.0988 7.39363 15.7486 7.26437C16.3985 7.13511 17.072 7.20145 17.6842 7.455C18.2963 7.70856 18.8195 8.13794 19.1876 8.68884C19.5557 9.23974 19.7522 9.88743 19.7522 10.55C19.7522 12.4 18.2422 13.9 16.4022 13.9ZM16.4022 8.7C15.3822 8.7 14.5522 9.53 14.5522 10.55C14.5522 11.57 15.3822 12.4 16.4022 12.4C17.4222 12.4 18.2522 11.57 18.2522 10.55C18.2522 9.53 17.4122 8.7 16.4022 8.7ZM9.24219 19.75C8.83219 19.75 8.49219 19.41 8.49219 19V17.05C8.49219 16.64 8.83219 16.3 9.24219 16.3C9.65219 16.3 9.99219 16.64 9.99219 17.05V19C9.99219 19.41 9.66219 19.75 9.24219 19.75ZM9.24219 10.65C8.83219 10.65 8.49219 10.31 8.49219 9.9V6C8.49219 5.59 8.83219 5.25 9.24219 5.25C9.65219 5.25 9.99219 5.59 9.99219 6V9.9C9.99219 10.31 9.66219 10.65 9.24219 10.65Z" fill="#020B19"/>
<path d="M9.24209 17.802C8.80216 17.802 8.36654 17.7153 7.9601 17.547C7.55366 17.3786 7.18436 17.1319 6.87328 16.8208C6.56221 16.5097 6.31545 16.1404 6.14709 15.734C5.97874 15.3275 5.89209 14.8919 5.89209 14.452C5.89209 14.0121 5.97874 13.5764 6.14709 13.17C6.31545 12.7636 6.56221 12.3943 6.87328 12.0832C7.18436 11.7721 7.55366 11.5253 7.9601 11.357C8.36654 11.1886 8.80216 11.102 9.24209 11.102C10.1306 11.102 10.9827 11.4549 11.6109 12.0832C12.2391 12.7114 12.5921 13.5635 12.5921 14.452C12.5921 15.3405 12.2391 16.1926 11.6109 16.8208C10.9827 17.449 10.1306 17.802 9.24209 17.802ZM9.24209 12.602C8.22209 12.602 7.39209 13.432 7.39209 14.452C7.39209 15.472 8.22209 16.302 9.24209 16.302C10.2621 16.302 11.0921 15.472 11.0921 14.452C11.0921 13.432 10.2721 12.602 9.24209 12.602Z" fill="#020B19"/>
</svg>
